# xmcd CD database file
#
# Track frame offsets:
#	150
#	63520
#	111153
#	170541
#	218572
#	269335
#
# Disc length: 3988 seconds
#
# Revision: 0
# Processed by: cddbd v1.5.2PL0 Copyright (c) Steve Scherf et al.
# Submitted via: CDex 1.70beta3
#
DISCID=530f9206
DTITLE=渋さ知らズ - 渋樹
DYEAR=2016
DGENRE=Jazz
TTITLE0=幻想交響曲第一楽章「夢-情熱」より
TTITLE1=ジムノペディ第一番
TTITLE2=減容交響曲第4楽章「断頭台への行進」より
TTITLE3=幻想交響曲より「イデー・フィクス」
TTITLE4=幻想交響曲第5楽章「サバトの夜の宴」より「怒りの日」
TTITLE5=フィッシャー「家路」～What a wonderful world
EXTD=YEAR: 2016
EXTT0=
EXTT1=
EXTT2=
EXTT3=
EXTT4=
EXTT5=
PLAYORDER=
